<svg xmlns="http://www.w3.org/2000/svg" width="554.667" height="541.168" viewBox="0 0 554.667 541.168">

  <path class="background" opacity=".15" d="M551.955 235.496c-7.248-48.41-41.648-86.034-85.424-99.731C447.211 49.29 364.006-8.779 275.01 4.544c-19.379 2.901-37.498 8.967-53.926 17.58-17.352-4.718-35.939-6.005-54.865-3.172-65.613 9.822-112.916 65.723-114.002 129.93C15.711 178.671-4.607 226.391 2.873 276.37c11.287 75.401 81.562 127.376 156.963 116.089 32.11-4.808 59.96-20.32 80.494-42.362l5.744 9.089-3.035 181.172h62.072l-4.242-178.722 16.289-18.967c2.766-.278 5.537-.611 8.316-1.027a173.168 173.168 0 0 0 14.473-2.814c26.834 28.272 66.572 43.442 108.047 37.232 67.526-10.108 114.068-73.04 103.961-140.564z"></path>

  <path class="stage_4" fill="#FFF" opacity=".7" d="M552.121 235.496c-7.248-48.41-41.648-86.034-85.424-99.731C447.377 49.29 364.172-8.779 275.176 4.544c-19.379 2.901-37.498 8.967-53.926 17.58-17.352-4.718-35.939-6.005-54.865-3.172-65.613 9.822-112.916 65.723-114.002 129.93C15.877 178.671-4.441 226.391 3.039 276.37c11.287 75.401 81.562 127.376 156.963 116.089 38.395-5.748 70.705-26.795 91.691-56.019 23.252 6.95 48.357 9.032 73.947 5.201a173.168 173.168 0 0 0 14.473-2.814c26.834 28.272 66.572 43.442 108.047 37.232 67.526-10.107 114.069-73.039 103.961-140.563z"></path>

  <path class="stage_3" fill="#183153" opacity="0.9" d="M487.582 238.465l-5.162-2.14-42.922 34.56-71.287-3.58-1.461-68.055 50.805-61.78-6.26-1.673-50.738 46.313-50.143-44.64-4.195 1.74 46.681 56.882L346.5 267l-69.334 73.851-63.242-74.764L207 182.25l39.75-58-2.26-4.402L195.5 170l-55.639-40.166-2.31 1.735 52.492 55.765 2.152 67.732-66.443-8.946-41.986-49.273-2.909 2.745L114 250.5 67.75 282l5.5 2.75 48.809-24.222 73.363 18.243 50.818 80.415-3.035 181.171h62.072l-4.242-178.721 61.336-71.418 77.774-4.022 39.931 34.875 5.57-4.069-31.949-38.46z"></path>

  <path class="stage_2" fill="#47A2DA" opacity=".8" d="M476.883 246.936l-.903-.924-32.003 31.233-85.434-.989.988-84.189 45.789-44.312-.898-.928-45.512 44.044-40.988-43.449-.94.886 41.258 43.735-.994 84.584-83.687 85.143-72.815-94.559-3.566-85.937 40.547-48.464-.991-.828-40.287 48.153-48.572-41.799-.842.978 48.858 42.044 3.539 85.301-77.303-14.495-29.994-42.498-1.055.744 29.744 42.145-40.295 24.227.664 1.106 40.682-24.458 77.873 14.601 73.108 94.938.005 152.802h1.291l-.005-152.757 84.011-85.472 85.799.994 31.508 33.326.937-.886-31.259-33.064z"></path>

  <g class="stage_1" fill="#47A2DA">
    <path d="M317.443 155.527l-7.656-7.656 7.656-7.656 7.656 7.657zM120.333 260.272l-6.1-8.944 8.947-6.1 6.099 8.944zM90.168 217.554l-6.1-8.942 8.945-6.102 6.1 8.943zM237.763 140.021l-8.172-7.1 7.103-8.175 8.172 7.1zM79.434 284.848l-6.1-8.945 8.946-6.1 6.1 8.944zM273.516 369.55l-7.654-7.659 7.659-7.654 7.654 7.658zM147.458 146.483l-7.654-7.66 7.66-7.655 7.654 7.659zM357.9 284.551l-7.654-7.659 7.659-7.654 7.654 7.659zM444.248 285.55l-7.654-7.658 7.66-7.656 7.654 7.659zM476.402 238.82l7.658 7.656-7.653 7.655-7.658-7.655zM200.115 274.101l-7.655-7.658 7.659-7.655 7.654 7.659zM196.484 172.841l7.658 7.656-7.653 7.655-7.658-7.655zM358.885 199.42l-7.657-7.657 7.657-7.656 7.656 7.658zM404.862 154.955l-7.656-7.656 7.655-7.656 7.657 7.657zM468.275 311.418l7.659 7.657 7.652-7.657-7.652-7.655zM273.508 523.12l-7.658-7.657 7.655-7.657 7.66 7.658z"></path>
  </g>

</svg>